<svg xmlns="http://www.w3.org/2000/svg" viewBox="0 0 435 435"><defs><style>.cls-1{fill:none;stroke:#8c8c8c;stroke-miterlimit:10;}</style></defs><title>circle_4</title><g id="レイヤー_2" data-name="レイヤー 2"><g id="レイヤー_1-2" data-name="レイヤー 1"><path class="cls-1" d="M133.557,417.668a217.632,217.632,0,0,1-83.489-62.117"/><path class="cls-1" d="M430.885,257.157C412.25,358.065,323.8,434.5,217.5,434.5a219.518,219.518,0,0,1-24.691-1.389"/><path class="cls-1" d="M414.05,125.415A216.173,216.173,0,0,1,434.5,217.5a219.8,219.8,0,0,1-1.12,22.187"/><path class="cls-1" d="M259.277,4.518a215.825,215.825,0,0,1,81,34.03q3.636,2.5,7.165,5.142,2.322,1.739,4.6,3.538a218,218,0,0,1,56.186,66.678"/><path class="cls-1" d="M217.5.5q7.244,0,14.371.468"/><path class="cls-1" d="M57.826,70.552a217.149,217.149,0,0,1,91.853-59.243q2.715-.892,5.463-1.716"/><path class="cls-1" d="M21.046,125.213A217.071,217.071,0,0,1,50.15,79.35"/><path class="cls-1" d="M4.2,177.372a215.479,215.479,0,0,1,8.656-32.237"/><path class="cls-1" d="M.865,204.815q.508-8.832,1.713-17.467"/><path class="cls-1" d="M34.713,334.5A215.981,215.981,0,0,1,.5,217.5"/></g></g></svg>
