<svg xmlns="http://www.w3.org/2000/svg" viewBox="0 0 476 476"><defs><style>.cls-1{fill:none;stroke:#a6a6a6;stroke-miterlimit:10;stroke-width:6px;}</style></defs><title>circle_2</title><g id="レイヤー_2" data-name="レイヤー 2"><g id="レイヤー_1-2" data-name="レイヤー 1"><path class="cls-1" d="M238,3q3.061,0,6.1.078,3.327.084,6.632.261a234.744,234.744,0,0,1,43.741,6.492q2.715.669,5.4,1.4,7.262,1.977,14.329,4.4A234.893,234.893,0,0,1,393.793,62.06q8.6,7.618,16.422,16.042a235.471,235.471,0,0,1,39.023,56.8"/><path class="cls-1" d="M21.6,146.215A234.887,234.887,0,0,1,54.2,91.553"/><path class="cls-1" d="M473,238a234.449,234.449,0,0,1-81.381,177.843A234.936,234.936,0,0,1,3,238"/></g></g></svg>
